<?xml version="1.0" encoding="UTF-8"?>
<svg xmlns="http://www.w3.org/2000/svg" version="1.1" width="300" height="300" viewBox="0 0 300 300"><rect x="0" y="0" width="300" height="300" fill="#ff5a00"/><g transform="scale(12)"><g transform="translate(0,0)"><path fill-rule="evenodd" d="M9 0L9 1L8 1L8 2L9 2L9 3L8 3L8 4L10 4L10 7L11 7L11 4L12 4L12 5L13 5L13 4L14 4L14 5L15 5L15 6L14 6L14 7L15 7L15 9L14 9L14 8L13 8L13 6L12 6L12 9L14 9L14 10L15 10L15 11L16 11L16 12L18 12L18 13L21 13L21 16L16 16L16 14L15 14L15 13L14 13L14 12L12 12L12 11L13 11L13 10L11 10L11 11L10 11L10 9L11 9L11 8L6 8L6 9L7 9L7 10L5 10L5 8L0 8L0 11L1 11L1 12L2 12L2 10L3 10L3 13L2 13L2 16L4 16L4 17L7 17L7 16L4 16L4 15L7 15L7 14L5 14L5 13L7 13L7 12L8 12L8 11L9 11L9 14L8 14L8 16L9 16L9 17L8 17L8 19L11 19L11 20L8 20L8 25L9 25L9 24L10 24L10 25L11 25L11 24L13 24L13 25L16 25L16 24L17 24L17 23L18 23L18 25L25 25L25 21L23 21L23 20L22 20L22 19L25 19L25 18L23 18L23 16L22 16L22 13L23 13L23 15L24 15L24 16L25 16L25 14L24 14L24 13L25 13L25 10L24 10L24 8L23 8L23 11L24 11L24 12L22 12L22 13L21 13L21 12L18 12L18 11L19 11L19 10L18 10L18 8L16 8L16 7L17 7L17 5L15 5L15 4L14 4L14 3L13 3L13 4L12 4L12 2L13 2L13 1L15 1L15 2L16 2L16 1L15 1L15 0L13 0L13 1L11 1L11 2L10 2L10 0ZM10 3L10 4L11 4L11 3ZM16 3L16 4L17 4L17 3ZM8 5L8 7L9 7L9 5ZM15 6L15 7L16 7L16 6ZM19 8L19 9L20 9L20 8ZM21 8L21 9L22 9L22 8ZM1 9L1 10L2 10L2 9ZM3 9L3 10L4 10L4 9ZM8 9L8 10L7 10L7 11L4 11L4 13L5 13L5 12L7 12L7 11L8 11L8 10L9 10L9 9ZM15 9L15 10L16 10L16 11L17 11L17 9ZM20 10L20 11L22 11L22 10ZM10 12L10 13L11 13L11 14L9 14L9 15L10 15L10 17L9 17L9 18L10 18L10 17L13 17L13 16L14 16L14 18L15 18L15 19L16 19L16 17L15 17L15 14L14 14L14 13L13 13L13 16L11 16L11 15L12 15L12 13L11 13L11 12ZM0 13L0 17L1 17L1 13ZM3 14L3 15L4 15L4 14ZM17 14L17 15L18 15L18 14ZM19 14L19 15L20 15L20 14ZM21 16L21 17L22 17L22 16ZM17 17L17 20L20 20L20 17ZM11 18L11 19L12 19L12 20L14 20L14 19L13 19L13 18ZM18 18L18 19L19 19L19 18ZM10 21L10 22L11 22L11 23L12 23L12 22L11 22L11 21ZM13 21L13 24L14 24L14 23L16 23L16 22L14 22L14 21ZM17 21L17 22L18 22L18 23L22 23L22 24L24 24L24 22L23 22L23 23L22 23L22 21L21 21L21 22L18 22L18 21ZM0 0L0 7L7 7L7 0ZM1 1L1 6L6 6L6 1ZM2 2L2 5L5 5L5 2ZM18 0L18 7L25 7L25 0ZM19 1L19 6L24 6L24 1ZM20 2L20 5L23 5L23 2ZM0 18L0 25L7 25L7 18ZM1 19L1 24L6 24L6 19ZM2 20L2 23L5 23L5 20Z" fill="#000000"/></g></g></svg>
